/* XPM */
static char * bottom_left_active_xpm[] = {
"28 28 4 1",
" 	c None",
".	c #212121",
"+	c #EAB000 s active_color_1",
"@	c #000000",
".....++@                    ",
".....++@                    ",
".....++@                    ",
".....++@                    ",
".....++@                    ",
".....++@                    ",
".....++@                    ",
".....++@                    ",
".....++@                    ",
".....++@                    ",
".....++@                    ",
".....++@                    ",
".....++@                    ",
".....++@                    ",
".....++@                    ",
".....++@                    ",
".....++@                    ",
".....++@                    ",
".....++@                    ",
".....++@                    ",
".....++@@@@@@@@@@@@@@@@@@@@@",
".....+++++++++++++++++++++++",
"......++++++++++++++++++++++",
"............................",
"............................",
"............................",
"............................",
"............................"};
