/* XPM */
static char * close_active_xpm[] = {
"26 26 3 1",
" 	c None",
".	c #EAB000 s active_color_1",
"+	c #FFFFFF",
"                          ",
"                          ",
"                          ",
"                          ",
" ........................ ",
"..........................",
"..........................",
"..........................",
"..........................",
"........++......++........",
"........+++....+++........",
".........+++..+++.........",
"..........++++++..........",
"...........++++...........",
"...........++++...........",
"..........++++++..........",
".........+++..+++.........",
"........+++....+++........",
"........++......++........",
"..........................",
"..........................",
"..........................",
"..........................",
"..........................",
"                          ",
"                          "};
